<mxfile host="app.diagrams.net" modified="2022-01-17T15:36:11.379Z" agent="5.0 (Windows NT 10.0; Win64; x64) AppleWebKit/537.36 (KHTML, like Gecko) Chrome/97.0.4692.71 Safari/537.36" etag="VppBJBhSxwEcfhEoJndi" version="16.2.4" type="github">
  <diagram name="Page-1" id="b5b7bab2-c9e2-2cf4-8b2a-24fd1a2a6d21">
    <mxGraphModel dx="1354" dy="726" grid="1" gridSize="10" guides="1" tooltips="1" connect="1" arrows="1" fold="1" page="1" pageScale="1" pageWidth="827" pageHeight="1169" background="none" math="0" shadow="0">
      <root>
        <mxCell id="0" />
        <mxCell id="1" parent="0" />
        <mxCell id="XPnr5vZnL5OtahEEkHZK-2" value="Администратор" style="html=1;" vertex="1" parent="1">
          <mxGeometry x="310" y="140" width="110" height="50" as="geometry" />
        </mxCell>
        <mxCell id="XPnr5vZnL5OtahEEkHZK-30" style="edgeStyle=orthogonalEdgeStyle;rounded=0;orthogonalLoop=1;jettySize=auto;html=1;entryX=0.5;entryY=1;entryDx=0;entryDy=0;" edge="1" parent="1" source="XPnr5vZnL5OtahEEkHZK-3" target="XPnr5vZnL5OtahEEkHZK-2">
          <mxGeometry relative="1" as="geometry">
            <Array as="points">
              <mxPoint x="185" y="220" />
              <mxPoint x="365" y="220" />
            </Array>
          </mxGeometry>
        </mxCell>
        <mxCell id="XPnr5vZnL5OtahEEkHZK-3" value="Пользователь_1" style="html=1;" vertex="1" parent="1">
          <mxGeometry x="130" y="250" width="110" height="50" as="geometry" />
        </mxCell>
        <mxCell id="XPnr5vZnL5OtahEEkHZK-32" style="edgeStyle=orthogonalEdgeStyle;rounded=0;orthogonalLoop=1;jettySize=auto;html=1;entryX=0.5;entryY=1;entryDx=0;entryDy=0;" edge="1" parent="1" source="XPnr5vZnL5OtahEEkHZK-4" target="XPnr5vZnL5OtahEEkHZK-2">
          <mxGeometry relative="1" as="geometry" />
        </mxCell>
        <mxCell id="XPnr5vZnL5OtahEEkHZK-4" value="Пользователь_2" style="html=1;" vertex="1" parent="1">
          <mxGeometry x="310" y="250" width="110" height="50" as="geometry" />
        </mxCell>
        <mxCell id="XPnr5vZnL5OtahEEkHZK-33" style="edgeStyle=orthogonalEdgeStyle;rounded=0;orthogonalLoop=1;jettySize=auto;html=1;exitX=0.5;exitY=0;exitDx=0;exitDy=0;" edge="1" parent="1" source="XPnr5vZnL5OtahEEkHZK-5" target="XPnr5vZnL5OtahEEkHZK-2">
          <mxGeometry relative="1" as="geometry">
            <mxPoint x="370" y="190" as="targetPoint" />
          </mxGeometry>
        </mxCell>
        <mxCell id="XPnr5vZnL5OtahEEkHZK-5" value="Пользователь_3" style="html=1;" vertex="1" parent="1">
          <mxGeometry x="480" y="250" width="110" height="50" as="geometry" />
        </mxCell>
        <mxCell id="XPnr5vZnL5OtahEEkHZK-6" value="Папка_1" style="html=1;" vertex="1" parent="1">
          <mxGeometry x="310" y="370" width="110" height="50" as="geometry" />
        </mxCell>
        <mxCell id="XPnr5vZnL5OtahEEkHZK-18" style="edgeStyle=orthogonalEdgeStyle;rounded=0;orthogonalLoop=1;jettySize=auto;html=1;exitX=1;exitY=0.5;exitDx=0;exitDy=0;entryX=0.5;entryY=1;entryDx=0;entryDy=0;" edge="1" parent="1" source="XPnr5vZnL5OtahEEkHZK-7" target="XPnr5vZnL5OtahEEkHZK-6">
          <mxGeometry relative="1" as="geometry" />
        </mxCell>
        <mxCell id="XPnr5vZnL5OtahEEkHZK-7" value="Папка_2" style="html=1;" vertex="1" parent="1">
          <mxGeometry x="170" y="470" width="110" height="50" as="geometry" />
        </mxCell>
        <mxCell id="XPnr5vZnL5OtahEEkHZK-19" style="edgeStyle=orthogonalEdgeStyle;rounded=0;orthogonalLoop=1;jettySize=auto;html=1;exitX=0.5;exitY=0;exitDx=0;exitDy=0;entryX=0.5;entryY=1;entryDx=0;entryDy=0;" edge="1" parent="1" source="XPnr5vZnL5OtahEEkHZK-8" target="XPnr5vZnL5OtahEEkHZK-7">
          <mxGeometry relative="1" as="geometry" />
        </mxCell>
        <mxCell id="XPnr5vZnL5OtahEEkHZK-8" value="Папка_4" style="html=1;" vertex="1" parent="1">
          <mxGeometry x="100" y="559.5" width="110" height="50" as="geometry" />
        </mxCell>
        <mxCell id="XPnr5vZnL5OtahEEkHZK-17" style="edgeStyle=orthogonalEdgeStyle;rounded=0;orthogonalLoop=1;jettySize=auto;html=1;exitX=0;exitY=0.5;exitDx=0;exitDy=0;entryX=0.5;entryY=1;entryDx=0;entryDy=0;" edge="1" parent="1" source="XPnr5vZnL5OtahEEkHZK-9" target="XPnr5vZnL5OtahEEkHZK-6">
          <mxGeometry relative="1" as="geometry" />
        </mxCell>
        <mxCell id="XPnr5vZnL5OtahEEkHZK-9" value="Папка_3" style="html=1;" vertex="1" parent="1">
          <mxGeometry x="500" y="470" width="110" height="50" as="geometry" />
        </mxCell>
        <mxCell id="XPnr5vZnL5OtahEEkHZK-20" style="edgeStyle=orthogonalEdgeStyle;rounded=0;orthogonalLoop=1;jettySize=auto;html=1;exitX=0.5;exitY=0;exitDx=0;exitDy=0;entryX=0.5;entryY=1;entryDx=0;entryDy=0;" edge="1" parent="1" source="XPnr5vZnL5OtahEEkHZK-10" target="XPnr5vZnL5OtahEEkHZK-7">
          <mxGeometry relative="1" as="geometry">
            <mxPoint x="230" y="520" as="targetPoint" />
          </mxGeometry>
        </mxCell>
        <mxCell id="XPnr5vZnL5OtahEEkHZK-10" value="Файл_1" style="html=1;" vertex="1" parent="1">
          <mxGeometry x="249" y="560" width="110" height="50" as="geometry" />
        </mxCell>
        <mxCell id="XPnr5vZnL5OtahEEkHZK-21" style="edgeStyle=orthogonalEdgeStyle;rounded=0;orthogonalLoop=1;jettySize=auto;html=1;exitX=0.5;exitY=0;exitDx=0;exitDy=0;entryX=0.5;entryY=1;entryDx=0;entryDy=0;" edge="1" parent="1" source="XPnr5vZnL5OtahEEkHZK-11" target="XPnr5vZnL5OtahEEkHZK-9">
          <mxGeometry relative="1" as="geometry" />
        </mxCell>
        <mxCell id="XPnr5vZnL5OtahEEkHZK-11" value="Файл_2" style="html=1;" vertex="1" parent="1">
          <mxGeometry x="420" y="560" width="110" height="50" as="geometry" />
        </mxCell>
        <mxCell id="XPnr5vZnL5OtahEEkHZK-22" style="edgeStyle=orthogonalEdgeStyle;rounded=0;orthogonalLoop=1;jettySize=auto;html=1;entryX=0.5;entryY=1;entryDx=0;entryDy=0;" edge="1" parent="1" source="XPnr5vZnL5OtahEEkHZK-12" target="XPnr5vZnL5OtahEEkHZK-9">
          <mxGeometry relative="1" as="geometry" />
        </mxCell>
        <mxCell id="XPnr5vZnL5OtahEEkHZK-12" value="Файл_3" style="html=1;" vertex="1" parent="1">
          <mxGeometry x="580" y="560" width="110" height="50" as="geometry" />
        </mxCell>
        <mxCell id="XPnr5vZnL5OtahEEkHZK-24" style="edgeStyle=orthogonalEdgeStyle;rounded=0;orthogonalLoop=1;jettySize=auto;html=1;exitX=0.5;exitY=0;exitDx=0;exitDy=0;" edge="1" parent="1" source="XPnr5vZnL5OtahEEkHZK-14" target="XPnr5vZnL5OtahEEkHZK-8">
          <mxGeometry relative="1" as="geometry">
            <mxPoint x="160" y="600" as="targetPoint" />
            <Array as="points">
              <mxPoint x="245" y="620" />
              <mxPoint x="155" y="620" />
            </Array>
          </mxGeometry>
        </mxCell>
        <mxCell id="XPnr5vZnL5OtahEEkHZK-14" value="Файл_5" style="html=1;" vertex="1" parent="1">
          <mxGeometry x="190" y="640" width="110" height="50" as="geometry" />
        </mxCell>
        <mxCell id="XPnr5vZnL5OtahEEkHZK-23" style="edgeStyle=orthogonalEdgeStyle;rounded=0;orthogonalLoop=1;jettySize=auto;html=1;exitX=0.5;exitY=0;exitDx=0;exitDy=0;" edge="1" parent="1" source="XPnr5vZnL5OtahEEkHZK-15" target="XPnr5vZnL5OtahEEkHZK-8">
          <mxGeometry relative="1" as="geometry" />
        </mxCell>
        <mxCell id="XPnr5vZnL5OtahEEkHZK-15" value="Файл_4" style="html=1;" vertex="1" parent="1">
          <mxGeometry x="50" y="640" width="110" height="50" as="geometry" />
        </mxCell>
        <mxCell id="XPnr5vZnL5OtahEEkHZK-34" style="edgeStyle=orthogonalEdgeStyle;rounded=0;orthogonalLoop=1;jettySize=auto;html=1;entryX=1;entryY=0.5;entryDx=0;entryDy=0;" edge="1" parent="1" source="XPnr5vZnL5OtahEEkHZK-27" target="XPnr5vZnL5OtahEEkHZK-2">
          <mxGeometry relative="1" as="geometry">
            <Array as="points">
              <mxPoint x="440" y="165" />
            </Array>
          </mxGeometry>
        </mxCell>
        <mxCell id="XPnr5vZnL5OtahEEkHZK-35" style="edgeStyle=orthogonalEdgeStyle;rounded=0;orthogonalLoop=1;jettySize=auto;html=1;entryX=0.5;entryY=1;entryDx=0;entryDy=0;" edge="1" parent="1" source="XPnr5vZnL5OtahEEkHZK-27" target="XPnr5vZnL5OtahEEkHZK-5">
          <mxGeometry relative="1" as="geometry" />
        </mxCell>
        <mxCell id="XPnr5vZnL5OtahEEkHZK-36" style="edgeStyle=orthogonalEdgeStyle;rounded=0;orthogonalLoop=1;jettySize=auto;html=1;entryX=0.5;entryY=1;entryDx=0;entryDy=0;" edge="1" parent="1" source="XPnr5vZnL5OtahEEkHZK-27" target="XPnr5vZnL5OtahEEkHZK-4">
          <mxGeometry relative="1" as="geometry" />
        </mxCell>
        <mxCell id="XPnr5vZnL5OtahEEkHZK-37" style="edgeStyle=orthogonalEdgeStyle;rounded=0;orthogonalLoop=1;jettySize=auto;html=1;entryX=0.5;entryY=1;entryDx=0;entryDy=0;" edge="1" parent="1" source="XPnr5vZnL5OtahEEkHZK-27" target="XPnr5vZnL5OtahEEkHZK-3">
          <mxGeometry relative="1" as="geometry" />
        </mxCell>
        <mxCell id="XPnr5vZnL5OtahEEkHZK-27" value="" style="rounded=0;whiteSpace=wrap;html=1;glass=1;fillColor=none;gradientColor=none;align=left;" vertex="1" parent="1">
          <mxGeometry x="40" y="350" width="710" height="360" as="geometry" />
        </mxCell>
        <mxCell id="XPnr5vZnL5OtahEEkHZK-28" value="Файловая структура" style="text;html=1;strokeColor=none;fillColor=none;align=center;verticalAlign=middle;whiteSpace=wrap;rounded=0;glass=1;" vertex="1" parent="1">
          <mxGeometry x="60" y="360" width="60" height="30" as="geometry" />
        </mxCell>
      </root>
    </mxGraphModel>
  </diagram>
</mxfile>
